AcariSans-Bold.ufo
<glyph name="nine" format="2">
  <advance width="1229"/>
  <unicode hex="0039"/>
  <outline>
    <contour>
      <point x="614" y="1468" type="curve" smooth="yes"/>
      <point x="331" y="1468"/>
      <point x="85" y="1255"/>
      <point x="85" y="962" type="curve" smooth="yes"/>
      <point x="85" y="673"/>
      <point x="331" y="477"/>
      <point x="609" y="477" type="curve" smooth="yes"/>
      <point x="648" y="477"/>
      <point x="714" y="481"/>
      <point x="755" y="487" type="curve"/>
      <point x="659" y="503" type="line"/>
      <point x="330" y="1" type="line"/>
      <point x="628" y="1" type="line"/>
      <point x="1062" y="714" type="line" smooth="yes"/>
      <point x="1110" y="793"/>
      <point x="1140" y="876"/>
      <point x="1140" y="970" type="curve" smooth="yes"/>
      <point x="1140" y="1257"/>
      <point x="896" y="1468"/>
    </contour>
    <contour>
      <point x="612" y="1226" type="curve" smooth="yes"/>
      <point x="758" y="1226"/>
      <point x="886" y="1112"/>
      <point x="886" y="964" type="curve" smooth="yes"/>
      <point x="886" y="812"/>
      <point x="758" y="702"/>
      <point x="612" y="702" type="curve" smooth="yes"/>
      <point x="465" y="702"/>
      <point x="338" y="816"/>
      <point x="338" y="964" type="curve" smooth="yes"/>
      <point x="338" y="1115"/>
      <point x="467" y="1226"/>
    </contour>
  </outline>
</glyph>
<glyph name="twosuperior" format="2">
  <advance width="921"/>
  <unicode hex="00B2"/>
  <outline>
    <contour>
      <point x="65" y="932" type="line"/>
      <point x="840" y="932" type="line"/>
      <point x="840" y="1108" type="line"/>
      <point x="371" y="1108" type="line"/>
      <point x="542" y="1203"/>
      <point x="793" y="1417"/>
      <point x="793" y="1621" type="curve" smooth="yes"/>
      <point x="793" y="1773"/>
      <point x="661" y="1900"/>
      <point x="461" y="1900" type="curve" smooth="yes"/>
      <point x="266" y="1900"/>
      <point x="118" y="1757"/>
      <point x="104" y="1565" type="curve"/>
      <point x="294" y="1556" type="line"/>
      <point x="303" y="1652"/>
      <point x="352" y="1724"/>
      <point x="461" y="1724" type="curve" smooth="yes"/>
      <point x="555" y="1724"/>
      <point x="597" y="1665"/>
      <point x="597" y="1588" type="curve" smooth="yes"/>
      <point x="597" y="1423"/>
      <point x="210" y="1102"/>
      <point x="65" y="1066" type="curve"/>
    </contour>
  </outline>
</glyph>
<glyph name="threesuperior" format="2">
  <advance width="921"/>
  <unicode hex="00B3"/>
  <outline>
    <contour>
      <point x="450" y="886" type="curve" smooth="yes"/>
      <point x="645" y="886"/>
      <point x="845" y="977"/>
      <point x="845" y="1194" type="curve" smooth="yes"/>
      <point x="845" y="1314"/>
      <point x="781" y="1400"/>
      <point x="660" y="1451" type="curve"/>
      <point x="664" y="1415" type="line"/>
      <point x="746" y="1471"/>
      <point x="787" y="1542"/>
      <point x="787" y="1632" type="curve" smooth="yes"/>
      <point x="787" y="1814"/>
      <point x="604" y="1900"/>
      <point x="445" y="1900" type="curve" smooth="yes"/>
      <point x="263" y="1900"/>
      <point x="104" y="1794"/>
      <point x="104" y="1603" type="curve"/>
      <point x="287" y="1593" type="line"/>
      <point x="290" y="1674"/>
      <point x="358" y="1718"/>
      <point x="449" y="1718" type="curve" smooth="yes"/>
      <point x="521" y="1718"/>
      <point x="600" y="1690"/>
      <point x="600" y="1606" type="curve" smooth="yes"/>
      <point x="600" y="1549"/>
      <point x="563" y="1505"/>
      <point x="477" y="1505" type="curve" smooth="yes"/>
      <point x="356" y="1505" type="line"/>
      <point x="356" y="1340" type="line"/>
      <point x="478" y="1340" type="line" smooth="yes"/>
      <point x="592" y="1340"/>
      <point x="659" y="1290"/>
      <point x="659" y="1208" type="curve" smooth="yes"/>
      <point x="659" y="1114"/>
      <point x="563" y="1066"/>
      <point x="451" y="1066" type="curve" smooth="yes"/>
      <point x="354" y="1066"/>
      <point x="237" y="1109"/>
      <point x="237" y="1224" type="curve"/>
      <point x="51" y="1215" type="line"/>
      <point x="51" y="986"/>
      <point x="248" y="886"/>
    </contour>
  </outline>
</glyph>
<glyph name="onesuperior" format="2">
  <advance width="921"/>
  <unicode hex="00B9"/>
  <outline>
    <contour>
      <point x="630" y="936" type="line"/>
      <point x="630" y="1900" type="line"/>
      <point x="445" y="1900" type="line"/>
      <point x="445" y="1875" type="line" smooth="yes"/>
      <point x="445" y="1806"/>
      <point x="404" y="1774"/>
      <point x="342" y="1774" type="curve" smooth="yes"/>
      <point x="183" y="1774" type="line"/>
      <point x="183" y="1626" type="line"/>
      <point x="438" y="1626" type="line"/>
      <point x="438" y="936" type="line"/>
    </contour>
  </outline>
</glyph>
<glyph name="zero.superior" format="2">
  <advance width="921"/>
  <unicode hex="2070"/>
  <outline>
    <contour>
      <point x="455" y="884" type="curve" smooth="yes"/>
      <point x="728" y="884"/>
      <point x="858" y="1144"/>
      <point x="858" y="1390" type="curve" smooth="yes"/>
      <point x="858" y="1637"/>
      <point x="726" y="1900"/>
      <point x="445" y="1900" type="curve" smooth="yes"/>
      <point x="164" y="1900"/>
      <point x="41" y="1645"/>
      <point x="41" y="1391" type="curve" smooth="yes"/>
      <point x="41" y="1139"/>
      <point x="169" y="884"/>
    </contour>
    <contour>
      <point x="450" y="1068" type="curve" smooth="yes"/>
      <point x="284" y="1068"/>
      <point x="234" y="1256"/>
      <point x="234" y="1391" type="curve" smooth="yes"/>
      <point x="234" y="1522"/>
      <point x="285" y="1711"/>
      <point x="445" y="1711" type="curve" smooth="yes"/>
      <point x="609" y="1711"/>
      <point x="656" y="1525"/>
      <point x="656" y="1392" type="curve" smooth="yes"/>
      <point x="656" y="1266"/>
      <point x="607" y="1068"/>
    </contour>
  </outline>
</glyph>
<glyph name="four.superior" format="2">
  <advance width="921"/>
  <unicode hex="2074"/>
  <outline>
    <contour>
      <point x="699" y="936" type="line"/>
      <point x="699" y="1154" type="line"/>
      <point x="854" y="1154" type="line"/>
      <point x="854" y="1333" type="line"/>
      <point x="699" y="1333" type="line"/>
      <point x="699" y="1900" type="line"/>
      <point x="535" y="1900" type="line"/>
      <point x="61" y="1267" type="line"/>
      <point x="61" y="1154" type="line"/>
      <point x="508" y="1154" type="line"/>
      <point x="508" y="936" type="line"/>
    </contour>
    <contour>
      <point x="508" y="1333" type="line"/>
      <point x="284" y="1333" type="line"/>
      <point x="508" y="1637" type="line"/>
    </contour>
  </outline>
</glyph>
<glyph name="five.superior" format="2">
  <advance width="921"/>
  <unicode hex="2075"/>
  <outline>
    <contour>
      <point x="421" y="922" type="curve" smooth="yes"/>
      <point x="638" y="922"/>
      <point x="786" y="1062"/>
      <point x="786" y="1267" type="curve" smooth="yes"/>
      <point x="786" y="1471"/>
      <point x="649" y="1605"/>
      <point x="469" y="1605" type="curve" smooth="yes"/>
      <point x="387" y="1605"/>
      <point x="335" y="1591"/>
      <point x="285" y="1562" type="curve"/>
      <point x="320" y="1721" type="line"/>
      <point x="737" y="1721" type="line"/>
      <point x="737" y="1900" type="line"/>
      <point x="183" y="1900" type="line"/>
      <point x="90" y="1385" type="line"/>
      <point x="247" y="1349" type="line"/>
      <point x="282" y="1399"/>
      <point x="344" y="1430"/>
      <point x="409" y="1430" type="curve" smooth="yes"/>
      <point x="516" y="1430"/>
      <point x="588" y="1365"/>
      <point x="588" y="1268" type="curve" smooth="yes"/>
      <point x="588" y="1166"/>
      <point x="516" y="1098"/>
      <point x="409" y="1098" type="curve" smooth="yes"/>
      <point x="315" y="1098"/>
      <point x="247" y="1158"/>
      <point x="222" y="1263" type="curve"/>
      <point x="62" y="1223" type="line"/>
      <point x="103" y="1044"/>
      <point x="249" y="922"/>
    </contour>
  </outline>
</glyph>
<glyph name="six.superior" format="2">
  <advance width="921"/>
  <unicode hex="2076"/>
  <outline>
    <contour>
      <point x="445" y="922" type="curve" smooth="yes"/>
      <point x="642" y="922"/>
      <point x="819" y="1064"/>
      <point x="819" y="1267" type="curve" smooth="yes"/>
      <point x="819" y="1452"/>
      <point x="686" y="1581"/>
      <point x="493" y="1581" type="curve" smooth="yes"/>
      <point x="468" y="1581"/>
      <point x="424" y="1581"/>
      <point x="388" y="1564" type="curve"/>
      <point x="403" y="1549" type="line"/>
      <point x="635" y="1900" type="line"/>
      <point x="436" y="1900" type="line"/>
      <point x="129" y="1425" type="line" smooth="yes"/>
      <point x="95" y="1373"/>
      <point x="73" y="1317"/>
      <point x="73" y="1255" type="curve" smooth="yes"/>
      <point x="73" y="1053"/>
      <point x="257" y="922"/>
    </contour>
    <contour>
      <point x="447" y="1105" type="curve" smooth="yes"/>
      <point x="355" y="1105"/>
      <point x="264" y="1169"/>
      <point x="264" y="1267" type="curve" smooth="yes"/>
      <point x="264" y="1365"/>
      <point x="356" y="1429"/>
      <point x="447" y="1429" type="curve" smooth="yes"/>
      <point x="539" y="1429"/>
      <point x="629" y="1364"/>
      <point x="629" y="1267" type="curve" smooth="yes"/>
      <point x="629" y="1168"/>
      <point x="540" y="1105"/>
    </contour>
  </outline>
</glyph>
<glyph name="eight.superior" format="2">
  <advance width="921"/>
  <unicode hex="2078"/>
  <outline>
    <contour>
      <point x="454" y="888" type="curve" smooth="yes"/>
      <point x="641" y="888"/>
      <point x="849" y="973"/>
      <point x="849" y="1186" type="curve" smooth="yes"/>
      <point x="849" y="1289"/>
      <point x="796" y="1378"/>
      <point x="691" y="1434" type="curve"/>
      <point x="756" y="1483"/>
      <point x="794" y="1552"/>
      <point x="794" y="1634" type="curve" smooth="yes"/>
      <point x="794" y="1815"/>
      <point x="612" y="1900"/>
      <point x="454" y="1900" type="curve" smooth="yes"/>
      <point x="291" y="1900"/>
      <point x="113" y="1815"/>
      <point x="113" y="1633" type="curve" smooth="yes"/>
      <point x="113" y="1553"/>
      <point x="148" y="1486"/>
      <point x="217" y="1434" type="curve"/>
      <point x="122" y="1384"/>
      <point x="59" y="1300"/>
      <point x="59" y="1185" type="curve" smooth="yes"/>
      <point x="59" y="969"/>
      <point x="271" y="888"/>
    </contour>
    <contour>
      <point x="457" y="1507" type="curve" smooth="yes"/>
      <point x="366" y="1507"/>
      <point x="306" y="1551"/>
      <point x="306" y="1624" type="curve" smooth="yes"/>
      <point x="306" y="1708"/>
      <point x="386" y="1737"/>
      <point x="457" y="1737" type="curve" smooth="yes"/>
      <point x="530" y="1737"/>
      <point x="608" y="1705"/>
      <point x="608" y="1621" type="curve" smooth="yes"/>
      <point x="608" y="1547"/>
      <point x="543" y="1507"/>
    </contour>
    <contour>
      <point x="452" y="1055" type="curve" smooth="yes"/>
      <point x="341" y="1055"/>
      <point x="250" y="1102"/>
      <point x="250" y="1198" type="curve" smooth="yes"/>
      <point x="250" y="1293"/>
      <point x="342" y="1341"/>
      <point x="452" y="1341" type="curve" smooth="yes"/>
      <point x="544" y="1341"/>
      <point x="655" y="1306"/>
      <point x="655" y="1196" type="curve" smooth="yes"/>
      <point x="655" y="1100"/>
      <point x="563" y="1055"/>
    </contour>
  </outline>
</glyph>
<glyph name="nine.superior" format="2">
  <advance width="921"/>
  <unicode hex="2079"/>
  <outline>
    <contour>
      <point x="453" y="921" type="line"/>
      <point x="760" y="1396" type="line" smooth="yes"/>
      <point x="798" y="1454"/>
      <point x="816" y="1509"/>
      <point x="816" y="1567" type="curve" smooth="yes"/>
      <point x="816" y="1752"/>
      <point x="650" y="1900"/>
      <point x="443" y="1900" type="curve" smooth="yes"/>
      <point x="236" y="1900"/>
      <point x="70" y="1745"/>
      <point x="70" y="1553" type="curve"/>
      <point x="70" y="1378"/>
      <point x="218" y="1235"/>
      <point x="397" y="1235" type="curve" smooth="yes"/>
      <point x="436" y="1235"/>
      <point x="474" y="1239"/>
      <point x="512" y="1246" type="curve"/>
      <point x="497" y="1267" type="line"/>
      <point x="255" y="921" type="line"/>
    </contour>
    <contour>
      <point x="442" y="1392" type="curve" smooth="yes"/>
      <point x="344" y="1392"/>
      <point x="261" y="1465"/>
      <point x="261" y="1553" type="curve" smooth="yes"/>
      <point x="261" y="1642"/>
      <point x="343" y="1716"/>
      <point x="442" y="1716" type="curve" smooth="yes"/>
      <point x="544" y="1716"/>
      <point x="625" y="1644"/>
      <point x="625" y="1553" type="curve" smooth="yes"/>
      <point x="625" y="1464"/>
      <point x="543" y="1392"/>
    </contour>
  </outline>
</glyph>
<glyph name="zero.inferior" format="2">
  <advance width="921"/>
  <unicode hex="2080"/>
  <outline>
    <contour>
      <point x="455" y="-514" type="curve" smooth="yes"/>
      <point x="728" y="-514"/>
      <point x="858" y="-254"/>
      <point x="858" y="-8" type="curve" smooth="yes"/>
      <point x="858" y="239"/>
      <point x="726" y="502"/>
      <point x="445" y="502" type="curve" smooth="yes"/>
      <point x="164" y="502"/>
      <point x="41" y="247"/>
      <point x="41" y="-7" type="curve" smooth="yes"/>
      <point x="41" y="-259"/>
      <point x="169" y="-514"/>
    </contour>
    <contour>
      <point x="450" y="-330" type="curve" smooth="yes"/>
      <point x="284" y="-330"/>
      <point x="234" y="-142"/>
      <point x="234" y="-7" type="curve" smooth="yes"/>
      <point x="234" y="124"/>
      <point x="285" y="313"/>
      <point x="445" y="313" type="curve" smooth="yes"/>
      <point x="609" y="313"/>
      <point x="656" y="127"/>
      <point x="656" y="-6" type="curve" smooth="yes"/>
      <point x="656" y="-132"/>
      <point x="607" y="-330"/>
    </contour>
  </outline>
</glyph>
<glyph name="two.inferior" format="2">
  <advance width="921"/>
  <unicode hex="2082"/>
  <outline>
    <contour>
      <point x="65" y="-468" type="line"/>
      <point x="840" y="-468" type="line"/>
      <point x="840" y="-292" type="line"/>
      <point x="371" y="-292" type="line"/>
      <point x="542" y="-197"/>
      <point x="793" y="17"/>
      <point x="793" y="221" type="curve" smooth="yes"/>
      <point x="793" y="373"/>
      <point x="661" y="500"/>
      <point x="461" y="500" type="curve" smooth="yes"/>
      <point x="266" y="500"/>
      <point x="118" y="357"/>
      <point x="104" y="165" type="curve"/>
      <point x="294" y="156" type="line"/>
      <point x="303" y="252"/>
      <point x="352" y="324"/>
      <point x="461" y="324" type="curve" smooth="yes"/>
      <point x="555" y="324"/>
      <point x="597" y="265"/>
      <point x="597" y="188" type="curve" smooth="yes"/>
      <point x="597" y="23"/>
      <point x="210" y="-298"/>
      <point x="65" y="-334" type="curve"/>
    </contour>
  </outline>
</glyph>
<glyph name="three.inferior" format="2">
  <advance width="921"/>
  <unicode hex="2083"/>
  <outline>
    <contour>
      <point x="450" y="-514" type="curve" smooth="yes"/>
      <point x="645" y="-514"/>
      <point x="845" y="-423"/>
      <point x="845" y="-206" type="curve" smooth="yes"/>
      <point x="845" y="-86"/>
      <point x="781" y="0"/>
      <point x="660" y="51" type="curve"/>
      <point x="664" y="15" type="line"/>
      <point x="746" y="71"/>
      <point x="787" y="142"/>
      <point x="787" y="232" type="curve" smooth="yes"/>
      <point x="787" y="414"/>
      <point x="604" y="500"/>
      <point x="445" y="500" type="curve" smooth="yes"/>
      <point x="263" y="500"/>
      <point x="104" y="394"/>
      <point x="104" y="203" type="curve"/>
      <point x="287" y="193" type="line"/>
      <point x="290" y="274"/>
      <point x="358" y="318"/>
      <point x="449" y="318" type="curve" smooth="yes"/>
      <point x="521" y="318"/>
      <point x="600" y="290"/>
      <point x="600" y="206" type="curve" smooth="yes"/>
      <point x="600" y="149"/>
      <point x="563" y="105"/>
      <point x="477" y="105" type="curve" smooth="yes"/>
      <point x="356" y="105" type="line"/>
      <point x="356" y="-60" type="line"/>
      <point x="478" y="-60" type="line" smooth="yes"/>
      <point x="592" y="-60"/>
      <point x="659" y="-110"/>
      <point x="659" y="-192" type="curve" smooth="yes"/>
      <point x="659" y="-286"/>
      <point x="563" y="-334"/>
      <point x="451" y="-334" type="curve" smooth="yes"/>
      <point x="354" y="-334"/>
      <point x="237" y="-291"/>
      <point x="237" y="-176" type="curve"/>
      <point x="51" y="-185" type="line"/>
      <point x="51" y="-414"/>
      <point x="248" y="-514"/>
    </contour>
  </outline>
</glyph>
<glyph name="four.inferior" format="2">
  <advance width="921"/>
  <unicode hex="2084"/>
  <outline>
    <contour>
      <point x="699" y="-464" type="line"/>
      <point x="699" y="-246" type="line"/>
      <point x="854" y="-246" type="line"/>
      <point x="854" y="-67" type="line"/>
      <point x="699" y="-67" type="line"/>
      <point x="699" y="500" type="line"/>
      <point x="535" y="500" type="line"/>
      <point x="61" y="-133" type="line"/>
      <point x="61" y="-246" type="line"/>
      <point x="508" y="-246" type="line"/>
      <point x="508" y="-464" type="line"/>
    </contour>
    <contour>
      <point x="508" y="-67" type="line"/>
      <point x="284" y="-67" type="line"/>
      <point x="508" y="237" type="line"/>
    </contour>
  </outline>
</glyph>
<glyph name="five.inferior" format="2">
  <advance width="921"/>
  <unicode hex="2085"/>
  <outline>
    <contour>
      <point x="421" y="-478" type="curve" smooth="yes"/>
      <point x="638" y="-478"/>
      <point x="786" y="-338"/>
      <point x="786" y="-133" type="curve" smooth="yes"/>
      <point x="786" y="71"/>
      <point x="649" y="205"/>
      <point x="469" y="205" type="curve" smooth="yes"/>
      <point x="387" y="205"/>
      <point x="335" y="191"/>
      <point x="285" y="162" type="curve"/>
      <point x="320" y="321" type="line"/>
      <point x="737" y="321" type="line"/>
      <point x="737" y="500" type="line"/>
      <point x="183" y="500" type="line"/>
      <point x="90" y="-15" type="line"/>
      <point x="247" y="-51" type="line"/>
      <point x="282" y="-1"/>
      <point x="344" y="30"/>
      <point x="409" y="30" type="curve" smooth="yes"/>
      <point x="516" y="30"/>
      <point x="588" y="-35"/>
      <point x="588" y="-132" type="curve" smooth="yes"/>
      <point x="588" y="-234"/>
      <point x="516" y="-302"/>
      <point x="409" y="-302" type="curve" smooth="yes"/>
      <point x="315" y="-302"/>
      <point x="247" y="-242"/>
      <point x="222" y="-137" type="curve"/>
      <point x="62" y="-177" type="line"/>
      <point x="103" y="-356"/>
      <point x="249" y="-478"/>
    </contour>
  </outline>
</glyph>
<glyph name="seven.inferior" format="2">
  <advance width="921"/>
  <unicode hex="2087"/>
  <outline>
    <contour>
      <point x="356" y="-464" type="line"/>
      <point x="784" y="401" type="line"/>
      <point x="784" y="500" type="line"/>
      <point x="87" y="500" type="line"/>
      <point x="87" y="323" type="line"/>
      <point x="574" y="323" type="line"/>
      <point x="164" y="-464" type="line"/>
    </contour>
  </outline>
</glyph>
<glyph name="eight.inferior" format="2">
  <advance width="921"/>
  <unicode hex="2088"/>
  <outline>
    <contour>
      <point x="454" y="-512" type="curve" smooth="yes"/>
      <point x="641" y="-512"/>
      <point x="849" y="-427"/>
      <point x="849" y="-214" type="curve" smooth="yes"/>
      <point x="849" y="-111"/>
      <point x="796" y="-22"/>
      <point x="691" y="34" type="curve"/>
      <point x="756" y="83"/>
      <point x="794" y="152"/>
      <point x="794" y="234" type="curve" smooth="yes"/>
      <point x="794" y="415"/>
      <point x="612" y="500"/>
      <point x="454" y="500" type="curve" smooth="yes"/>
      <point x="291" y="500"/>
      <point x="113" y="415"/>
      <point x="113" y="233" type="curve" smooth="yes"/>
      <point x="113" y="153"/>
      <point x="148" y="86"/>
      <point x="217" y="34" type="curve"/>
      <point x="122" y="-16"/>
      <point x="59" y="-100"/>
      <point x="59" y="-215" type="curve" smooth="yes"/>
      <point x="59" y="-431"/>
      <point x="271" y="-512"/>
    </contour>
    <contour>
      <point x="457" y="107" type="curve" smooth="yes"/>
      <point x="366" y="107"/>
      <point x="306" y="151"/>
      <point x="306" y="224" type="curve" smooth="yes"/>
      <point x="306" y="308"/>
      <point x="386" y="337"/>
      <point x="457" y="337" type="curve" smooth="yes"/>
      <point x="530" y="337"/>
      <point x="608" y="305"/>
      <point x="608" y="221" type="curve" smooth="yes"/>
      <point x="608" y="147"/>
      <point x="543" y="107"/>
    </contour>
    <contour>
      <point x="452" y="-345" type="curve" smooth="yes"/>
      <point x="341" y="-345"/>
      <point x="250" y="-298"/>
      <point x="250" y="-202" type="curve" smooth="yes"/>
      <point x="250" y="-107"/>
      <point x="342" y="-59"/>
      <point x="452" y="-59" type="curve" smooth="yes"/>
      <point x="544" y="-59"/>
      <point x="655" y="-94"/>
      <point x="655" y="-204" type="curve" smooth="yes"/>
      <point x="655" y="-300"/>
      <point x="563" y="-345"/>
    </contour>
  </outline>
</glyph>
<glyph name="brevecomb_acutecomb.case" format="2">
  <anchor x="-440" y="1192" name="_top"/>
  <outline>
    <contour>
      <point x="-440" y="1191" type="curve" smooth="yes"/>
      <point x="-225" y="1191"/>
      <point x="-118" y="1253"/>
      <point x="-118" y="1376" type="curve"/>
      <point x="-294" y="1376" type="line"/>
      <point x="-294" y="1318"/>
      <point x="-357" y="1289"/>
      <point x="-440" y="1289" type="curve" smooth="yes"/>
      <point x="-523" y="1289"/>
      <point x="-588" y="1316"/>
      <point x="-588" y="1376" type="curve"/>
      <point x="-764" y="1376" type="line"/>
      <point x="-764" y="1253"/>
      <point x="-656" y="1191"/>
    </contour>
    <contour>
      <point x="-350" y="1376" type="line"/>
      <point x="-100" y="1530" type="line"/>
      <point x="-366" y="1530" type="line"/>
      <point x="-532" y="1376" type="line"/>
    </contour>
  </outline>
</glyph>
<glyph name="brevecomb_hookabovecomb.case" format="2">
  <anchor x="-440" y="1192" name="_top"/>
  <outline>
    <contour>
      <point x="-440" y="1191" type="curve" smooth="yes"/>
      <point x="-225" y="1191"/>
      <point x="-118" y="1253"/>
      <point x="-118" y="1376" type="curve"/>
      <point x="-294" y="1376" type="line"/>
      <point x="-294" y="1318"/>
      <point x="-357" y="1289"/>
      <point x="-440" y="1289" type="curve" smooth="yes"/>
      <point x="-523" y="1289"/>
      <point x="-588" y="1316"/>
      <point x="-588" y="1376" type="curve"/>
      <point x="-764" y="1376" type="line"/>
      <point x="-764" y="1253"/>
      <point x="-656" y="1191"/>
    </contour>
    <contour>
      <point x="-514" y="1357" type="line"/>
      <point x="-324" y="1376"/>
      <point x="-241" y="1415"/>
      <point x="-241" y="1490" type="curve" smooth="yes"/>
      <point x="-241" y="1578"/>
      <point x="-368" y="1632"/>
      <point x="-576" y="1632" type="curve" smooth="yes"/>
      <point x="-607" y="1632" type="line"/>
      <point x="-607" y="1535" type="line"/>
      <point x="-472" y="1535"/>
      <point x="-409" y="1517"/>
      <point x="-409" y="1480" type="curve" smooth="yes"/>
      <point x="-409" y="1450"/>
      <point x="-447" y="1433"/>
      <point x="-542" y="1422" type="curve"/>
    </contour>
  </outline>
</glyph>
<glyph name="brevecomb_tildecomb.case" format="2">
  <anchor x="-396" y="1206" name="_top"/>
  <outline>
    <contour>
      <point x="-633" y="1440" type="line"/>
      <point x="-525" y="1440" type="line"/>
      <point x="-525" y="1462" type="line" smooth="yes"/>
      <point x="-525" y="1495"/>
      <point x="-511" y="1510"/>
      <point x="-475" y="1510" type="curve" smooth="yes"/>
      <point x="-458" y="1510"/>
      <point x="-443" y="1504"/>
      <point x="-415" y="1483" type="curve" smooth="yes"/>
      <point x="-407" y="1477" type="line"/>
      <point x="-328" y="1535" type="line"/>
      <point x="-335" y="1540" type="line" smooth="yes"/>
      <point x="-379" y="1573"/>
      <point x="-422" y="1586"/>
      <point x="-481" y="1586" type="curve" smooth="yes"/>
      <point x="-574" y="1586"/>
      <point x="-633" y="1546"/>
      <point x="-633" y="1483" type="curve" smooth="yes"/>
    </contour>
    <contour>
      <point x="-110" y="1578" type="line"/>
      <point x="-218" y="1578" type="line"/>
      <point x="-218" y="1556" type="line" smooth="yes"/>
      <point x="-218" y="1523"/>
      <point x="-232" y="1508"/>
      <point x="-268" y="1508" type="curve" smooth="yes"/>
      <point x="-285" y="1508"/>
      <point x="-300" y="1514"/>
      <point x="-328" y="1535" type="curve" smooth="yes"/>
      <point x="-336" y="1541" type="line"/>
      <point x="-415" y="1483" type="line"/>
      <point x="-408" y="1478" type="line" smooth="yes"/>
      <point x="-364" y="1445"/>
      <point x="-321" y="1432"/>
      <point x="-262" y="1432" type="curve" smooth="yes"/>
      <point x="-169" y="1432"/>
      <point x="-110" y="1472"/>
      <point x="-110" y="1535" type="curve" smooth="yes"/>
    </contour>
    <contour>
      <point x="-381" y="1191" type="curve" smooth="yes"/>
      <point x="-166" y="1191"/>
      <point x="-59" y="1253"/>
      <point x="-59" y="1376" type="curve"/>
      <point x="-235" y="1376" type="line"/>
      <point x="-235" y="1318"/>
      <point x="-298" y="1289"/>
      <point x="-381" y="1289" type="curve" smooth="yes"/>
      <point x="-464" y="1289"/>
      <point x="-529" y="1316"/>
      <point x="-529" y="1376" type="curve"/>
      <point x="-705" y="1376" type="line"/>
      <point x="-705" y="1253"/>
      <point x="-597" y="1191"/>
    </contour>
  </outline>
</glyph>
<glyph name="circumflexcomb_acutecomb.case" format="2">
  <anchor x="-396" y="1206" name="_top"/>
  <outline>
    <contour>
      <point x="-720" y="1192" type="line"/>
      <point x="-526" y="1192" type="line"/>
      <point x="-396" y="1290" type="line"/>
      <point x="-264" y="1192" type="line"/>
      <point x="-72" y="1192" type="line"/>
      <point x="-396" y="1432" type="line"/>
    </contour>
    <contour>
      <point x="-30" y="1337" type="line"/>
      <point x="220" y="1491" type="line"/>
      <point x="-46" y="1491" type="line"/>
      <point x="-212" y="1337" type="line"/>
    </contour>
  </outline>
</glyph>
<glyph name="circumflexcomb_hookabovecomb.case" format="2">
  <anchor x="-396" y="1206" name="_top"/>
  <outline>
    <contour>
      <point x="-720" y="1192" type="line"/>
      <point x="-526" y="1192" type="line"/>
      <point x="-396" y="1290" type="line"/>
      <point x="-264" y="1192" type="line"/>
      <point x="-72" y="1192" type="line"/>
      <point x="-396" y="1432" type="line"/>
    </contour>
    <contour>
      <point x="-159" y="1284" type="line"/>
      <point x="31" y="1303"/>
      <point x="114" y="1342"/>
      <point x="114" y="1417" type="curve" smooth="yes"/>
      <point x="114" y="1505"/>
      <point x="-13" y="1559"/>
      <point x="-221" y="1559" type="curve" smooth="yes"/>
      <point x="-252" y="1559" type="line"/>
      <point x="-252" y="1462" type="line"/>
      <point x="-117" y="1462"/>
      <point x="-54" y="1444"/>
      <point x="-54" y="1407" type="curve" smooth="yes"/>
      <point x="-54" y="1377"/>
      <point x="-92" y="1360"/>
      <point x="-187" y="1349" type="curve"/>
    </contour>
  </outline>
</glyph>
<glyph name="circumflexcomb_tildecomb.case" format="2">
  <anchor x="-396" y="1206" name="_top"/>
  <outline>
    <contour>
      <point x="-720" y="1192" type="line"/>
      <point x="-526" y="1192" type="line"/>
      <point x="-396" y="1290" type="line"/>
      <point x="-264" y="1192" type="line"/>
      <point x="-72" y="1192" type="line"/>
      <point x="-396" y="1432" type="line"/>
    </contour>
    <contour>
      <point x="-633" y="1440" type="line"/>
      <point x="-525" y="1440" type="line"/>
      <point x="-525" y="1462" type="line" smooth="yes"/>
      <point x="-525" y="1495"/>
      <point x="-511" y="1510"/>
      <point x="-475" y="1510" type="curve" smooth="yes"/>
      <point x="-458" y="1510"/>
      <point x="-443" y="1504"/>
      <point x="-415" y="1483" type="curve" smooth="yes"/>
      <point x="-407" y="1477" type="line"/>
      <point x="-328" y="1535" type="line"/>
      <point x="-335" y="1540" type="line" smooth="yes"/>
      <point x="-379" y="1573"/>
      <point x="-422" y="1586"/>
      <point x="-481" y="1586" type="curve" smooth="yes"/>
      <point x="-574" y="1586"/>
      <point x="-633" y="1546"/>
      <point x="-633" y="1483" type="curve" smooth="yes"/>
    </contour>
    <contour>
      <point x="-110" y="1578" type="line"/>
      <point x="-218" y="1578" type="line"/>
      <point x="-218" y="1556" type="line" smooth="yes"/>
      <point x="-218" y="1523"/>
      <point x="-232" y="1508"/>
      <point x="-268" y="1508" type="curve" smooth="yes"/>
      <point x="-285" y="1508"/>
      <point x="-300" y="1514"/>
      <point x="-328" y="1535" type="curve" smooth="yes"/>
      <point x="-336" y="1541" type="line"/>
      <point x="-415" y="1483" type="line"/>
      <point x="-408" y="1478" type="line" smooth="yes"/>
      <point x="-364" y="1445"/>
      <point x="-321" y="1432"/>
      <point x="-262" y="1432" type="curve" smooth="yes"/>
      <point x="-169" y="1432"/>
      <point x="-110" y="1472"/>
      <point x="-110" y="1535" type="curve" smooth="yes"/>
    </contour>
  </outline>
</glyph>
<glyph name="dieresiscomb_caroncomb.case" format="2">
  <anchor x="-445" y="1192" name="_top"/>
  <outline>
    <contour>
      <point x="-716" y="1192" type="line"/>
      <point x="-506" y="1192" type="line"/>
      <point x="-506" y="1346" type="line"/>
      <point x="-716" y="1346" type="line"/>
    </contour>
    <contour>
      <point x="-384" y="1192" type="line"/>
      <point x="-174" y="1192" type="line"/>
      <point x="-174" y="1346" type="line"/>
      <point x="-384" y="1346" type="line"/>
    </contour>
    <contour>
      <point x="-445" y="1364" type="line"/>
      <point x="-121" y="1590" type="line"/>
      <point x="-313" y="1590" type="line"/>
      <point x="-445" y="1498" type="line"/>
      <point x="-575" y="1590" type="line"/>
      <point x="-769" y="1590" type="line"/>
    </contour>
  </outline>
</glyph>
<glyph name="dieresiscomb_macroncomb.case" format="2">
  <anchor x="-430" y="1192" name="_top"/>
  <outline>
    <contour>
      <point x="-686" y="1192" type="line"/>
      <point x="-476" y="1192" type="line"/>
      <point x="-476" y="1345" type="line"/>
      <point x="-686" y="1345" type="line"/>
    </contour>
    <contour>
      <point x="-384" y="1192" type="line"/>
      <point x="-175" y="1192" type="line"/>
      <point x="-175" y="1345" type="line"/>
      <point x="-384" y="1345" type="line"/>
    </contour>
    <contour>
      <point x="-714" y="1395" type="line"/>
      <point x="-142" y="1395" type="line"/>
      <point x="-142" y="1518" type="line"/>
      <point x="-714" y="1518" type="line"/>
    </contour>
  </outline>
</glyph>
<glyph name="eight.dnom" format="2">
  <advance width="921"/>
  <outline>
    <contour>
      <point x="454" y="-10" type="curve" smooth="yes"/>
      <point x="641" y="-10"/>
      <point x="849" y="75"/>
      <point x="849" y="288" type="curve" smooth="yes"/>
      <point x="849" y="391"/>
      <point x="796" y="480"/>
      <point x="691" y="536" type="curve"/>
      <point x="756" y="585"/>
      <point x="794" y="653"/>
      <point x="794" y="735" type="curve" smooth="yes"/>
      <point x="794" y="916"/>
      <point x="612" y="1002"/>
      <point x="454" y="1002" type="curve" smooth="yes"/>
      <point x="291" y="1002"/>
      <point x="113" y="916"/>
      <point x="113" y="734" type="curve" smooth="yes"/>
      <point x="113" y="654"/>
      <point x="148" y="588"/>
      <point x="217" y="536" type="curve"/>
      <point x="122" y="486"/>
      <point x="59" y="402"/>
      <point x="59" y="287" type="curve" smooth="yes"/>
      <point x="59" y="71"/>
      <point x="271" y="-10"/>
    </contour>
    <contour>
      <point x="457" y="608" type="curve" smooth="yes"/>
      <point x="366" y="608"/>
      <point x="306" y="653"/>
      <point x="306" y="726" type="curve" smooth="yes"/>
      <point x="306" y="810"/>
      <point x="386" y="839"/>
      <point x="457" y="839" type="curve" smooth="yes"/>
      <point x="530" y="839"/>
      <point x="608" y="807"/>
      <point x="608" y="723" type="curve" smooth="yes"/>
      <point x="608" y="649"/>
      <point x="543" y="608"/>
    </contour>
    <contour>
      <point x="452" y="157" type="curve" smooth="yes"/>
      <point x="341" y="157"/>
      <point x="250" y="204"/>
      <point x="250" y="300" type="curve" smooth="yes"/>
      <point x="250" y="395"/>
      <point x="342" y="442"/>
      <point x="452" y="442" type="curve" smooth="yes"/>
      <point x="544" y="442"/>
      <point x="655" y="408"/>
      <point x="655" y="298" type="curve" smooth="yes"/>
      <point x="655" y="202"/>
      <point x="563" y="157"/>
    </contour>
  </outline>
</glyph>
<glyph name="eight.numr" format="2">
  <advance width="921"/>
  <outline>
    <contour>
      <point x="454" y="474" type="curve" smooth="yes"/>
      <point x="641" y="474"/>
      <point x="849" y="559"/>
      <point x="849" y="772" type="curve" smooth="yes"/>
      <point x="849" y="875"/>
      <point x="796" y="964"/>
      <point x="691" y="1020" type="curve"/>
      <point x="756" y="1069"/>
      <point x="794" y="1138"/>
      <point x="794" y="1220" type="curve" smooth="yes"/>
      <point x="794" y="1401"/>
      <point x="612" y="1486"/>
      <point x="454" y="1486" type="curve" smooth="yes"/>
      <point x="291" y="1486"/>
      <point x="113" y="1401"/>
      <point x="113" y="1219" type="curve" smooth="yes"/>
      <point x="113" y="1139"/>
      <point x="148" y="1072"/>
      <point x="217" y="1020" type="curve"/>
      <point x="122" y="970"/>
      <point x="59" y="886"/>
      <point x="59" y="771" type="curve" smooth="yes"/>
      <point x="59" y="555"/>
      <point x="271" y="474"/>
    </contour>
    <contour>
      <point x="457" y="1093" type="curve" smooth="yes"/>
      <point x="366" y="1093"/>
      <point x="306" y="1137"/>
      <point x="306" y="1210" type="curve" smooth="yes"/>
      <point x="306" y="1294"/>
      <point x="386" y="1323"/>
      <point x="457" y="1323" type="curve" smooth="yes"/>
      <point x="530" y="1323"/>
      <point x="608" y="1291"/>
      <point x="608" y="1207" type="curve" smooth="yes"/>
      <point x="608" y="1133"/>
      <point x="543" y="1093"/>
    </contour>
    <contour>
      <point x="452" y="641" type="curve" smooth="yes"/>
      <point x="341" y="641"/>
      <point x="250" y="688"/>
      <point x="250" y="784" type="curve" smooth="yes"/>
      <point x="250" y="879"/>
      <point x="342" y="927"/>
      <point x="452" y="927" type="curve" smooth="yes"/>
      <point x="544" y="927"/>
      <point x="655" y="892"/>
      <point x="655" y="782" type="curve" smooth="yes"/>
      <point x="655" y="686"/>
      <point x="563" y="641"/>
    </contour>
  </outline>
</glyph>
<glyph name="five.dnom" format="2">
  <advance width="921"/>
  <outline>
    <contour>
      <point x="421" y="-10" type="curve" smooth="yes"/>
      <point x="638" y="-10"/>
      <point x="786" y="130"/>
      <point x="786" y="335" type="curve" smooth="yes"/>
      <point x="786" y="539"/>
      <point x="649" y="673"/>
      <point x="469" y="673" type="curve" smooth="yes"/>
      <point x="387" y="673"/>
      <point x="335" y="659"/>
      <point x="285" y="630" type="curve"/>
      <point x="320" y="789" type="line"/>
      <point x="737" y="789" type="line"/>
      <point x="737" y="968" type="line"/>
      <point x="183" y="968" type="line"/>
      <point x="90" y="453" type="line"/>
      <point x="247" y="417" type="line"/>
      <point x="282" y="467"/>
      <point x="344" y="498"/>
      <point x="409" y="498" type="curve" smooth="yes"/>
      <point x="516" y="498"/>
      <point x="588" y="433"/>
      <point x="588" y="336" type="curve" smooth="yes"/>
      <point x="588" y="234"/>
      <point x="516" y="166"/>
      <point x="409" y="166" type="curve" smooth="yes"/>
      <point x="315" y="166"/>
      <point x="247" y="226"/>
      <point x="222" y="331" type="curve"/>
      <point x="62" y="291" type="line"/>
      <point x="103" y="112"/>
      <point x="249" y="-10"/>
    </contour>
  </outline>
</glyph>
<glyph name="five.numr" format="2">
  <advance width="921"/>
  <outline>
    <contour>
      <point x="421" y="484" type="curve" smooth="yes"/>
      <point x="638" y="484"/>
      <point x="786" y="624"/>
      <point x="786" y="829" type="curve" smooth="yes"/>
      <point x="786" y="1033"/>
      <point x="649" y="1167"/>
      <point x="469" y="1167" type="curve" smooth="yes"/>
      <point x="387" y="1167"/>
      <point x="335" y="1153"/>
      <point x="285" y="1124" type="curve"/>
      <point x="320" y="1283" type="line"/>
      <point x="737" y="1283" type="line"/>
      <point x="737" y="1462" type="line"/>
      <point x="183" y="1462" type="line"/>
      <point x="90" y="947" type="line"/>
      <point x="247" y="911" type="line"/>
      <point x="282" y="961"/>
      <point x="344" y="992"/>
      <point x="409" y="992" type="curve" smooth="yes"/>
      <point x="516" y="992"/>
      <point x="588" y="927"/>
      <point x="588" y="830" type="curve" smooth="yes"/>
      <point x="588" y="728"/>
      <point x="516" y="660"/>
      <point x="409" y="660" type="curve" smooth="yes"/>
      <point x="315" y="660"/>
      <point x="247" y="720"/>
      <point x="222" y="825" type="curve"/>
      <point x="62" y="785" type="line"/>
      <point x="103" y="606"/>
      <point x="249" y="484"/>
    </contour>
  </outline>
</glyph>
<glyph name="four.dnom" format="2">
  <advance width="921"/>
  <outline>
    <contour>
      <point x="699" y="0" type="line"/>
      <point x="699" y="218" type="line"/>
      <point x="854" y="218" type="line"/>
      <point x="854" y="397" type="line"/>
      <point x="699" y="397" type="line"/>
      <point x="699" y="965" type="line"/>
      <point x="535" y="965" type="line"/>
      <point x="61" y="332" type="line"/>
      <point x="61" y="218" type="line"/>
      <point x="508" y="218" type="line"/>
      <point x="508" y="0" type="line"/>
    </contour>
    <contour>
      <point x="508" y="397" type="line"/>
      <point x="284" y="397" type="line"/>
      <point x="508" y="701" type="line"/>
    </contour>
  </outline>
</glyph>
<glyph name="four.numr" format="2">
  <advance width="921"/>
  <outline>
    <contour>
      <point x="699" y="498" type="line"/>
      <point x="699" y="716" type="line"/>
      <point x="854" y="716" type="line"/>
      <point x="854" y="895" type="line"/>
      <point x="699" y="895" type="line"/>
      <point x="699" y="1462" type="line"/>
      <point x="535" y="1462" type="line"/>
      <point x="61" y="829" type="line"/>
      <point x="61" y="716" type="line"/>
      <point x="508" y="716" type="line"/>
      <point x="508" y="498" type="line"/>
    </contour>
    <contour>
      <point x="508" y="895" type="line"/>
      <point x="284" y="895" type="line"/>
      <point x="508" y="1199" type="line"/>
    </contour>
  </outline>
</glyph>
<glyph name="nine.dnom" format="2">
  <advance width="921"/>
  <outline>
    <contour>
      <point x="453" y="0" type="line"/>
      <point x="760" y="476" type="line" smooth="yes"/>
      <point x="798" y="534"/>
      <point x="816" y="589"/>
      <point x="816" y="647" type="curve" smooth="yes"/>
      <point x="816" y="832"/>
      <point x="650" y="979"/>
      <point x="443" y="979" type="curve" smooth="yes"/>
      <point x="236" y="979"/>
      <point x="70" y="825"/>
      <point x="70" y="633" type="curve"/>
      <point x="70" y="458"/>
      <point x="218" y="315"/>
      <point x="397" y="315" type="curve" smooth="yes"/>
      <point x="436" y="315"/>
      <point x="474" y="319"/>
      <point x="512" y="326" type="curve"/>
      <point x="497" y="347" type="line"/>
      <point x="255" y="0" type="line"/>
    </contour>
    <contour>
      <point x="442" y="472" type="curve" smooth="yes"/>
      <point x="344" y="472"/>
      <point x="261" y="545"/>
      <point x="261" y="633" type="curve" smooth="yes"/>
      <point x="261" y="722"/>
      <point x="343" y="796"/>
      <point x="442" y="796" type="curve" smooth="yes"/>
      <point x="544" y="796"/>
      <point x="625" y="724"/>
      <point x="625" y="633" type="curve" smooth="yes"/>
      <point x="625" y="544"/>
      <point x="543" y="472"/>
    </contour>
  </outline>
</glyph>
<glyph name="nine.numr" format="2">
  <advance width="921"/>
  <outline>
    <contour>
      <point x="453" y="498" type="line"/>
      <point x="760" y="973" type="line" smooth="yes"/>
      <point x="798" y="1031"/>
      <point x="816" y="1086"/>
      <point x="816" y="1144" type="curve" smooth="yes"/>
      <point x="816" y="1329"/>
      <point x="650" y="1477"/>
      <point x="443" y="1477" type="curve" smooth="yes"/>
      <point x="236" y="1477"/>
      <point x="70" y="1322"/>
      <point x="70" y="1130" type="curve"/>
      <point x="70" y="955"/>
      <point x="218" y="812"/>
      <point x="397" y="812" type="curve" smooth="yes"/>
      <point x="436" y="812"/>
      <point x="474" y="816"/>
      <point x="512" y="823" type="curve"/>
      <point x="497" y="844" type="line"/>
      <point x="255" y="498" type="line"/>
    </contour>
    <contour>
      <point x="442" y="969" type="curve" smooth="yes"/>
      <point x="344" y="969"/>
      <point x="261" y="1042"/>
      <point x="261" y="1130" type="curve" smooth="yes"/>
      <point x="261" y="1219"/>
      <point x="343" y="1293"/>
      <point x="442" y="1293" type="curve" smooth="yes"/>
      <point x="544" y="1293"/>
      <point x="625" y="1221"/>
      <point x="625" y="1130" type="curve" smooth="yes"/>
      <point x="625" y="1041"/>
      <point x="543" y="969"/>
    </contour>
  </outline>
</glyph>
<glyph name="one.dnom" format="2">
  <advance width="921"/>
  <outline>
    <contour>
      <point x="630" y="0" type="line"/>
      <point x="630" y="964" type="line"/>
      <point x="445" y="964" type="line"/>
      <point x="445" y="939" type="line" smooth="yes"/>
      <point x="445" y="870"/>
      <point x="404" y="838"/>
      <point x="342" y="838" type="curve" smooth="yes"/>
      <point x="183" y="838" type="line"/>
      <point x="183" y="690" type="line"/>
      <point x="438" y="690" type="line"/>
      <point x="438" y="0" type="line"/>
    </contour>
  </outline>
</glyph>
<glyph name="ringcomb_acutecomb.case" format="2">
  <anchor x="-359" y="1222" name="_center"/>
  <outline>
    <contour>
      <point x="-358" y="1064" type="curve" smooth="yes"/>
      <point x="-225" y="1064"/>
      <point x="-120" y="1134"/>
      <point x="-120" y="1222" type="curve" smooth="yes"/>
      <point x="-120" y="1311"/>
      <point x="-225" y="1380"/>
      <point x="-358" y="1380" type="curve" smooth="yes"/>
      <point x="-491" y="1380"/>
      <point x="-596" y="1311"/>
      <point x="-596" y="1222" type="curve" smooth="yes"/>
      <point x="-596" y="1134"/>
      <point x="-491" y="1064"/>
    </contour>
    <contour>
      <point x="-358" y="1152" type="curve" smooth="yes"/>
      <point x="-419" y="1152"/>
      <point x="-462" y="1182"/>
      <point x="-462" y="1222" type="curve" smooth="yes"/>
      <point x="-462" y="1263"/>
      <point x="-419" y="1292"/>
      <point x="-358" y="1292" type="curve" smooth="yes"/>
      <point x="-297" y="1292"/>
      <point x="-254" y="1263"/>
      <point x="-254" y="1222" type="curve" smooth="yes"/>
      <point x="-254" y="1182"/>
      <point x="-297" y="1152"/>
    </contour>
    <contour>
      <point x="-305" y="1411" type="line"/>
      <point x="10" y="1621" type="line"/>
      <point x="-256" y="1621" type="line"/>
      <point x="-487" y="1411" type="line"/>
    </contour>
  </outline>
</glyph>
<glyph name="six.dnom" format="2">
  <advance width="921"/>
  <outline>
    <contour>
      <point x="445" y="-10" type="curve" smooth="yes"/>
      <point x="642" y="-10"/>
      <point x="819" y="132"/>
      <point x="819" y="335" type="curve" smooth="yes"/>
      <point x="819" y="520"/>
      <point x="686" y="648"/>
      <point x="498" y="648" type="curve" smooth="yes"/>
      <point x="457" y="648"/>
      <point x="423" y="642"/>
      <point x="388" y="631" type="curve"/>
      <point x="403" y="616" type="line"/>
      <point x="635" y="968" type="line"/>
      <point x="436" y="968" type="line"/>
      <point x="129" y="493" type="line" smooth="yes"/>
      <point x="95" y="441"/>
      <point x="73" y="385"/>
      <point x="73" y="323" type="curve" smooth="yes"/>
      <point x="73" y="121"/>
      <point x="257" y="-10"/>
    </contour>
    <contour>
      <point x="447" y="172" type="curve" smooth="yes"/>
      <point x="355" y="172"/>
      <point x="264" y="237"/>
      <point x="264" y="335" type="curve" smooth="yes"/>
      <point x="264" y="433"/>
      <point x="356" y="497"/>
      <point x="447" y="497" type="curve" smooth="yes"/>
      <point x="539" y="497"/>
      <point x="629" y="432"/>
      <point x="629" y="335" type="curve" smooth="yes"/>
      <point x="629" y="236"/>
      <point x="540" y="172"/>
    </contour>
  </outline>
</glyph>
<glyph name="six.numr" format="2">
  <advance width="921"/>
  <outline>
    <contour>
      <point x="445" y="484" type="curve" smooth="yes"/>
      <point x="642" y="484"/>
      <point x="819" y="626"/>
      <point x="819" y="829" type="curve" smooth="yes"/>
      <point x="819" y="1014"/>
      <point x="686" y="1143"/>
      <point x="493" y="1143" type="curve" smooth="yes"/>
      <point x="468" y="1143"/>
      <point x="424" y="1143"/>
      <point x="388" y="1126" type="curve"/>
      <point x="403" y="1111" type="line"/>
      <point x="635" y="1462" type="line"/>
      <point x="436" y="1462" type="line"/>
      <point x="129" y="987" type="line" smooth="yes"/>
      <point x="95" y="935"/>
      <point x="73" y="879"/>
      <point x="73" y="817" type="curve" smooth="yes"/>
      <point x="73" y="615"/>
      <point x="257" y="484"/>
    </contour>
    <contour>
      <point x="447" y="667" type="curve" smooth="yes"/>
      <point x="355" y="667"/>
      <point x="264" y="731"/>
      <point x="264" y="829" type="curve" smooth="yes"/>
      <point x="264" y="927"/>
      <point x="356" y="991"/>
      <point x="447" y="991" type="curve" smooth="yes"/>
      <point x="539" y="991"/>
      <point x="629" y="926"/>
      <point x="629" y="829" type="curve" smooth="yes"/>
      <point x="629" y="730"/>
      <point x="540" y="667"/>
    </contour>
  </outline>
</glyph>
<glyph name="three.dnom" format="2">
  <advance width="921"/>
  <outline>
    <contour>
      <point x="450" y="-10" type="curve" smooth="yes"/>
      <point x="645" y="-10"/>
      <point x="845" y="81"/>
      <point x="845" y="298" type="curve" smooth="yes"/>
      <point x="845" y="418"/>
      <point x="781" y="504"/>
      <point x="660" y="555" type="curve"/>
      <point x="664" y="519" type="line"/>
      <point x="746" y="575"/>
      <point x="787" y="645"/>
      <point x="787" y="735" type="curve" smooth="yes"/>
      <point x="787" y="917"/>
      <point x="604" y="1004"/>
      <point x="445" y="1004" type="curve" smooth="yes"/>
      <point x="263" y="1004"/>
      <point x="104" y="898"/>
      <point x="104" y="707" type="curve"/>
      <point x="287" y="697" type="line"/>
      <point x="290" y="778"/>
      <point x="358" y="821"/>
      <point x="449" y="821" type="curve" smooth="yes"/>
      <point x="521" y="821"/>
      <point x="600" y="794"/>
      <point x="600" y="710" type="curve" smooth="yes"/>
      <point x="600" y="653"/>
      <point x="563" y="608"/>
      <point x="477" y="608" type="curve" smooth="yes"/>
      <point x="356" y="608" type="line"/>
      <point x="356" y="444" type="line"/>
      <point x="478" y="444" type="line" smooth="yes"/>
      <point x="592" y="444"/>
      <point x="659" y="394"/>
      <point x="659" y="312" type="curve" smooth="yes"/>
      <point x="659" y="218"/>
      <point x="563" y="170"/>
      <point x="451" y="170" type="curve" smooth="yes"/>
      <point x="354" y="170"/>
      <point x="237" y="213"/>
      <point x="237" y="328" type="curve"/>
      <point x="51" y="319" type="line"/>
      <point x="51" y="90"/>
      <point x="248" y="-10"/>
    </contour>
  </outline>
</glyph>
<glyph name="three.numr" format="2">
  <advance width="921"/>
  <outline>
    <contour>
      <point x="450" y="473" type="curve" smooth="yes"/>
      <point x="645" y="473"/>
      <point x="845" y="564"/>
      <point x="845" y="781" type="curve" smooth="yes"/>
      <point x="845" y="901"/>
      <point x="781" y="987"/>
      <point x="660" y="1038" type="curve"/>
      <point x="664" y="1002" type="line"/>
      <point x="746" y="1058"/>
      <point x="787" y="1129"/>
      <point x="787" y="1219" type="curve" smooth="yes"/>
      <point x="787" y="1401"/>
      <point x="604" y="1487"/>
      <point x="445" y="1487" type="curve" smooth="yes"/>
      <point x="263" y="1487"/>
      <point x="104" y="1381"/>
      <point x="104" y="1190" type="curve"/>
      <point x="287" y="1180" type="line"/>
      <point x="290" y="1261"/>
      <point x="358" y="1305"/>
      <point x="449" y="1305" type="curve" smooth="yes"/>
      <point x="521" y="1305"/>
      <point x="600" y="1277"/>
      <point x="600" y="1193" type="curve" smooth="yes"/>
      <point x="600" y="1136"/>
      <point x="563" y="1092"/>
      <point x="477" y="1092" type="curve" smooth="yes"/>
      <point x="356" y="1092" type="line"/>
      <point x="356" y="927" type="line"/>
      <point x="478" y="927" type="line" smooth="yes"/>
      <point x="592" y="927"/>
      <point x="659" y="877"/>
      <point x="659" y="795" type="curve" smooth="yes"/>
      <point x="659" y="701"/>
      <point x="563" y="653"/>
      <point x="451" y="653" type="curve" smooth="yes"/>
      <point x="354" y="653"/>
      <point x="237" y="696"/>
      <point x="237" y="811" type="curve"/>
      <point x="51" y="802" type="line"/>
      <point x="51" y="573"/>
      <point x="248" y="473"/>
    </contour>
  </outline>
</glyph>
<glyph name="two.dnom" format="2">
  <advance width="921"/>
  <outline>
    <contour>
      <point x="65" y="0" type="line"/>
      <point x="840" y="0" type="line"/>
      <point x="840" y="176" type="line"/>
      <point x="371" y="176" type="line"/>
      <point x="542" y="271"/>
      <point x="793" y="485"/>
      <point x="793" y="689" type="curve" smooth="yes"/>
      <point x="793" y="841"/>
      <point x="661" y="968"/>
      <point x="461" y="968" type="curve" smooth="yes"/>
      <point x="266" y="968"/>
      <point x="118" y="825"/>
      <point x="104" y="633" type="curve"/>
      <point x="294" y="624" type="line"/>
      <point x="303" y="720"/>
      <point x="352" y="792"/>
      <point x="461" y="792" type="curve" smooth="yes"/>
      <point x="555" y="792"/>
      <point x="597" y="733"/>
      <point x="597" y="656" type="curve" smooth="yes"/>
      <point x="597" y="491"/>
      <point x="210" y="170"/>
      <point x="65" y="134" type="curve"/>
    </contour>
  </outline>
</glyph>
<glyph name="two.numr" format="2">
  <advance width="921"/>
  <outline>
    <contour>
      <point x="65" y="500" type="line"/>
      <point x="840" y="500" type="line"/>
      <point x="840" y="676" type="line"/>
      <point x="371" y="676" type="line"/>
      <point x="542" y="771"/>
      <point x="793" y="985"/>
      <point x="793" y="1189" type="curve" smooth="yes"/>
      <point x="793" y="1341"/>
      <point x="661" y="1468"/>
      <point x="461" y="1468" type="curve" smooth="yes"/>
      <point x="266" y="1468"/>
      <point x="118" y="1325"/>
      <point x="104" y="1133" type="curve"/>
      <point x="294" y="1124" type="line"/>
      <point x="303" y="1220"/>
      <point x="352" y="1292"/>
      <point x="461" y="1292" type="curve" smooth="yes"/>
      <point x="555" y="1292"/>
      <point x="597" y="1233"/>
      <point x="597" y="1156" type="curve" smooth="yes"/>
      <point x="597" y="991"/>
      <point x="210" y="670"/>
      <point x="65" y="634" type="curve"/>
    </contour>
  </outline>
</glyph>
<glyph name="zero.dnom" format="2">
  <advance width="921"/>
  <outline>
    <contour>
      <point x="455" y="-10" type="curve" smooth="yes"/>
      <point x="728" y="-10"/>
      <point x="858" y="250"/>
      <point x="858" y="496" type="curve" smooth="yes"/>
      <point x="858" y="743"/>
      <point x="726" y="1006"/>
      <point x="445" y="1006" type="curve" smooth="yes"/>
      <point x="164" y="1006"/>
      <point x="41" y="751"/>
      <point x="41" y="497" type="curve" smooth="yes"/>
      <point x="41" y="245"/>
      <point x="169" y="-10"/>
    </contour>
    <contour>
      <point x="450" y="174" type="curve" smooth="yes"/>
      <point x="284" y="174"/>
      <point x="234" y="362"/>
      <point x="234" y="497" type="curve" smooth="yes"/>
      <point x="234" y="628"/>
      <point x="285" y="817"/>
      <point x="445" y="817" type="curve" smooth="yes"/>
      <point x="609" y="817"/>
      <point x="656" y="631"/>
      <point x="656" y="498" type="curve" smooth="yes"/>
      <point x="656" y="372"/>
      <point x="607" y="174"/>
    </contour>
  </outline>
</glyph>
<glyph name="zero.numr" format="2">
  <advance width="921"/>
  <outline>
    <contour>
      <point x="455" y="473" type="curve" smooth="yes"/>
      <point x="728" y="473"/>
      <point x="858" y="733"/>
      <point x="858" y="979" type="curve" smooth="yes"/>
      <point x="858" y="1226"/>
      <point x="726" y="1489"/>
      <point x="445" y="1489" type="curve" smooth="yes"/>
      <point x="164" y="1489"/>
      <point x="41" y="1234"/>
      <point x="41" y="980" type="curve" smooth="yes"/>
      <point x="41" y="728"/>
      <point x="169" y="473"/>
    </contour>
    <contour>
      <point x="450" y="657" type="curve" smooth="yes"/>
      <point x="284" y="657"/>
      <point x="234" y="845"/>
      <point x="234" y="980" type="curve" smooth="yes"/>
      <point x="234" y="1111"/>
      <point x="285" y="1300"/>
      <point x="445" y="1300" type="curve" smooth="yes"/>
      <point x="609" y="1300"/>
      <point x="656" y="1114"/>
      <point x="656" y="981" type="curve" smooth="yes"/>
      <point x="656" y="855"/>
      <point x="607" y="657"/>
    </contour>
  </outline>
</glyph>
